<?xml version="1.0" encoding="UTF-8"?>
<svg id="Layer_1" data-name="Layer 1" xmlns="http://www.w3.org/2000/svg" viewBox="0 0 122 234">
  <defs>
    <style>
      .cls-1 {
        font-size: 33px;
      }

      .cls-1, .cls-2, .cls-3 {
        font-family: Bungee-Regular, Bungee;
      }

      .cls-1, .cls-2, .cls-3, .cls-4 {
        fill: #fff;
      }

      .cls-2 {
        font-size: 16px;
      }

      .cls-5 {
        letter-spacing: 0em;
      }

      .cls-6 {
        letter-spacing: 0em;
      }

      .cls-3 {
        font-size: 23px;
      }

      .cls-7 {
        fill: #231f20;
      }

      .cls-7, .cls-4 {
        stroke-width: 0px;
      }
    </style>
  </defs>
  <path class="cls-7" d="m13.45,10.94v112.02h53.8c-10.86,35.47-28.95,38.04-53.8,38.04v52.61c33.39,0,61.07-11.12,78.26-37.24,17.19-26.12,23.4-48.62,23.4-106.08V10.94H13.45Z"/>
  <path class="cls-4" d="m63.1,127.52s-43.44,24.96-15.88,24.96c22.23,0,28.42-16.03,29.99-22.23.31-1.23-.61-2.43-1.89-2.46l-12.22-.27Zm-11.02,19.77l9.08-14.59,11.28-.1c-3.89,11.67-20.35,14.69-20.35,14.69Z"/>
  <g>
    <text class="cls-3" transform="translate(18.8 36.45)"><tspan x="0" y="0">Hjæl</tspan><tspan class="cls-5" x="72.38" y="0">p</tspan></text>
    <text class="cls-2" transform="translate(19.66 55.5)"><tspan x="0" y="0">J</tspan><tspan class="cls-6" x="11.01" y="0">e</tspan><tspan x="21.39" y="0">g Er en </tspan></text>
    <text class="cls-1" transform="translate(17.4 88.22)"><tspan x="0" y="0">fisk</tspan></text>
  </g>
</svg>