<?xml version="1.0" encoding="UTF-8"?>
<svg id="Layer_2" data-name="Layer 2" xmlns="http://www.w3.org/2000/svg" viewBox="0 0 397.05 396.93">
  <defs>
    <style>
      .cls-1, .cls-2 {
        stroke-width: 0px;
      }

      .cls-2 {
        fill: #fff;
      }
    </style>
  </defs>
  <g id="Layer_1-2" data-name="Layer 1">
    <g>
      <path class="cls-2" d="m198.43,0C88.42.35.1,88.68,0,198.44c-.1,109.6,89.2,198.84,198.62,198.49,110.01-.35,198.33-88.67,198.43-198.44C397.15,88.9,307.85-.35,198.43,0Z"/>
      <path class="cls-2" d="m198.43,0c109.42-.35,198.72,88.89,198.62,198.49-.1,109.76-88.42,198.08-198.43,198.44C89.2,397.28-.1,308.04,0,198.44.1,88.68,88.42.35,198.43,0Z"/>
      <path class="cls-2" d="m183.57,175.22c.28-.05.56-.09.85-.14.9,3.16,1.7,6.36,2.71,9.48,1.93,5.98,3.6,12.07,7.26,17.34.99,1.43,2.11,2.08,3.9,2.08,13.98-.06,27.96-.02,41.94-.04,6.32-.01,10.84-6.28,8.11-11.9-1.36-2.8-1.06-4.88,0-7.37.64-1.52,1.07-3.12,1.6-4.68,1.13-3.32,2.27-6.63,3.48-10.15-14.71-3-29.1-5.94-43.52-8.88-1.53,4.68-2.98,9.11-4.42,13.54-.47-5.18-.48-10.28-.47-15.38,0-4.08-.88-7.92-3.1-11.37-.67-1.04-1.24-2.22-3.13-1.49-9.35,3.6-17.72,1.76-25.15-4.87-.73-.65-1.8-1.23-2.74-1.26-3.49-.13-7-.15-10.48.07-1.47.09-3.11.59-4.3,1.42-5.45,3.81-8.22,9.49-9.93,15.64-4.2,15.02-2.75,30.11-.07,45.16.11.6,1.11,1.47,1.7,1.48,14.48.08,28.95.06,43.63.06-.28-1.01-.48-1.89-.77-2.74-1.98-5.8-4.15-11.55-5.9-17.43-.81-2.73-.82-5.7-1.2-8.56Zm141.21,104.06c0-7.32.44-14.15-.13-20.9-.55-6.53-4.15-10.1-10.69-10.38-12.7-.53-25.44-.63-38.15-.43-5.79.09-10.04,4.41-10.31,10.24-.45,9.63-.68,19.3-.29,28.92.32,8.03,4.71,12,12.32,12.08,11.74.11,23.48.13,35.21-.08,3.79-.07,7.57-.88,11.32-1.55,1.79-.32,2.58-1.42,1.33-3.25-1.07-1.58-1.92-3.32-3.06-4.84-.44-.59-1.43-1.1-2.15-1.08-3.91.12-7.8.56-11.71.64-8.32.16-16.64.19-24.96.23-2.39.01-4.09-1.15-4.33-3.59-.23-2.36-.05-4.76-.05-6.84,15.35.28,30.45.55,45.64.83Zm-136.82-9.95c-.58,0-.98.02-1.38,0-8.31-.44-16.61-.97-24.92-1.29-3.4-.13-6.82.07-10.22.34-6.88.54-11.01,4.12-12.49,10.82-.4,1.84-.43,3.79-.38,5.69.2,8.24,5.35,13.73,13.53,13.89,9.72.19,19.47.54,29.13-1.24,2.56-.47,5.73-1.27,7.75-.23,4.31,2.21,8.54,1.22,12.91,1.52,0-13.64.33-27.04-.14-40.4-.25-7.07-4.91-10.92-12.05-10.99-12.65-.13-25.31,0-37.96.11-2.31.02-4.62.51-6.93.78-1.46.18-1.97,1.02-1.74,2.43.4,2.44.76,4.88,1.12,7.18,10.42-.27,20.63-.56,30.85-.77,3.16-.07,6.32.07,9.48.16,1.92.05,3.28,1.05,3.38,2.97.17,2.97.04,5.95.04,9.03Zm1.99-123.72c13.13.17,23.83-10.38,24.01-23.66.17-12.49-10.43-23.4-22.61-23.92-12.53-.53-24.95,8.78-25.12,23.64-.16,13.79,10.94,24.06,23.72,23.94Zm42.05,153.18v-41.66h23.82v-9.85h-23.82c0-3.45-.02-6.68,0-9.91.03-3.65.96-4.83,4.65-5.03,8.73-.49,17.42-.24,26.05,1.95.48-1.18.91-2.25,1.34-3.33,2.59-6.47,2.62-6.84-4.35-7.43-8.69-.73-17.43-.98-26.16-1.06-10.41-.1-15.52,5.24-15.54,15.74,0,2.97,0,5.94,0,9.2h-6.97v9.72h7.05v41.67h13.92Zm-103.28-49.56c-1.14-.32-1.99-.66-2.87-.78-14.74-1.89-29.55-1.37-44.34-.9-5.78.19-10.21,4.79-10.34,10.27-.24,9.8-.34,19.62-.07,29.42.2,7.47,4.61,11.49,12.17,11.56,11.73.11,23.47.13,35.19-.08,3.78-.07,7.57-.87,11.32-1.56,1.57-.29,2.85-1.17,1.4-3.15-1.02-1.4-1.91-2.92-2.72-4.46-.72-1.37-1.66-1.66-3.19-1.6-11.72.4-23.44.73-35.16.95-4.03.07-5.3-1.36-5.34-5.46-.04-4.32-.03-8.65,0-12.98.02-3.16.05-6.32.21-9.47.11-2.12,1.46-3.28,3.49-3.6,1.15-.18,2.32-.31,3.47-.28,8.56.2,17.13.47,25.69.67,2.88.07,5.76.01,8.8.01.69-2.6,1.43-5.38,2.28-8.56Z"/>
      <path class="cls-1" d="m183.57,175.22c.37,2.86.38,5.83,1.2,8.56,1.75,5.87,3.92,11.62,5.9,17.43.29.85.49,1.73.77,2.74-14.67,0-29.15.02-43.63-.06-.59,0-1.6-.88-1.7-1.48-2.67-15.05-4.12-30.14.07-45.16,1.72-6.15,4.48-11.84,9.93-15.64,1.2-.84,2.83-1.33,4.3-1.42,3.48-.22,6.99-.2,10.48-.07.94.03,2.01.62,2.74,1.26,7.43,6.63,15.8,8.47,25.15,4.87,1.89-.73,2.46.45,3.13,1.49,2.22,3.45,3.11,7.29,3.1,11.37-.01,5.1,0,10.21.47,15.38,1.45-4.43,2.89-8.85,4.42-13.54,14.42,2.94,28.8,5.88,43.52,8.88-1.21,3.52-2.34,6.83-3.48,10.15-.53,1.56-.96,3.17-1.6,4.68-1.05,2.48-1.35,4.57,0,7.37,2.73,5.62-1.78,11.89-8.11,11.9-13.98.03-27.96-.02-41.94.04-1.8,0-2.91-.64-3.9-2.08-3.66-5.27-5.34-11.36-7.26-17.34-1.01-3.13-1.81-6.32-2.71-9.48-.28.05-.56.09-.85.14Zm63.75-1.65c-.23-.19-.34-.37-.48-.4-10.77-2.23-21.54-4.47-32.33-6.6-.6-.12-1.81.51-2.01,1.06-2.21,5.84-4.28,11.74-6.53,18.01,12.45.27,24.56.52,36.91.79,1.46-4.21,2.95-8.54,4.44-12.86Z"/>
      <path class="cls-1" d="m324.79,279.28c-15.19-.27-30.29-.55-45.64-.83,0,2.09-.18,4.48.05,6.84.24,2.43,1.94,3.6,4.33,3.59,8.32-.04,16.64-.07,24.96-.23,3.91-.08,7.8-.52,11.71-.64.72-.02,1.71.49,2.15,1.08,1.14,1.52,1.99,3.26,3.06,4.84,1.24,1.83.45,2.93-1.33,3.25-3.75.67-7.54,1.48-11.32,1.55-11.73.21-23.47.19-35.21.08-7.61-.07-12-4.04-12.32-12.08-.38-9.62-.16-19.29.29-28.92.27-5.83,4.52-10.14,10.31-10.24,12.71-.2,25.45-.1,38.15.43,6.53.27,10.14,3.85,10.69,10.38.57,6.75.13,13.59.13,20.9Zm-13.86-10.23c0-3.02.06-5.76-.02-8.49-.05-1.73-.76-3.15-2.78-3.16-8.31-.05-16.61-.08-24.92-.04-2.32.01-3.8,1.4-3.98,3.66-.21,2.61-.05,5.24-.05,8.02h31.75Z"/>
      <path class="cls-1" d="m187.96,269.32c0-3.08.12-6.06-.04-9.03-.11-1.93-1.47-2.92-3.38-2.97-3.16-.09-6.32-.22-9.48-.16-10.21.21-20.43.51-30.85.77-.36-2.29-.72-4.74-1.12-7.18-.23-1.41.28-2.25,1.74-2.43,2.31-.28,4.62-.76,6.93-.78,12.65-.11,25.31-.24,37.96-.11,7.14.07,11.8,3.92,12.05,10.99.47,13.36.14,26.75.14,40.4-4.38-.3-8.61.69-12.91-1.52-2.02-1.04-5.19-.24-7.75.23-9.66,1.78-19.41,1.43-29.13,1.24-8.19-.16-13.33-5.66-13.53-13.89-.05-1.9-.02-3.85.38-5.69,1.47-6.71,5.61-10.28,12.49-10.82,3.4-.27,6.82-.47,10.22-.34,8.31.32,16.61.85,24.92,1.29.4.02.8,0,1.38,0Zm.06,7.53c-10.56,0-20.79-.06-31.01.04-3.15.03-4.47,1.98-4.48,5.91,0,4.07,1.31,6.01,4.63,6.05,9.56.11,19.13.03,28.7.05,1.49,0,2.15-.7,2.16-2.1.02-3.23,0-6.46,0-9.95Z"/>
      <path class="cls-1" d="m189.96,145.6c-12.78.12-23.88-10.16-23.72-23.94.17-14.86,12.59-24.17,25.12-23.64,12.17.52,22.78,11.43,22.61,23.92-.18,13.29-10.89,23.84-24.01,23.66Z"/>
      <path class="cls-1" d="m232.01,298.78h-13.92v-41.67h-7.05v-9.72h6.97c0-3.26,0-6.23,0-9.2.03-10.49,5.13-15.84,15.54-15.74,8.72.09,17.47.33,26.16,1.06,6.96.59,6.93.96,4.35,7.43-.43,1.07-.86,2.14-1.34,3.33-8.62-2.19-17.32-2.44-26.05-1.95-3.69.21-4.62,1.38-4.65,5.03-.03,3.23,0,6.46,0,9.91h23.82v9.85h-23.82v41.66Z"/>
      <path class="cls-1" d="m128.73,249.23c-.85,3.18-1.59,5.96-2.28,8.56-3.04,0-5.92.06-8.8-.01-8.56-.2-17.13-.47-25.69-.67-1.16-.03-2.33.1-3.47.28-2.03.32-3.38,1.48-3.49,3.6-.16,3.15-.18,6.31-.21,9.47-.03,4.33-.04,8.65,0,12.98.04,4.1,1.31,5.54,5.34,5.46,11.72-.22,23.44-.55,35.16-.95,1.53-.05,2.48.24,3.19,1.6.81,1.54,1.69,3.06,2.72,4.46,1.44,1.98.17,2.86-1.4,3.15-3.75.69-7.53,1.49-11.32,1.56-11.73.21-23.46.19-35.19.08-7.56-.07-11.97-4.09-12.17-11.56-.27-9.8-.16-19.62.07-29.42.13-5.48,4.56-10.09,10.34-10.27,14.78-.47,29.59-.99,44.34.9.88.11,1.73.46,2.87.78Z"/>
      <path class="cls-2" d="m247.32,173.57c-1.49,4.32-2.99,8.65-4.44,12.86-12.35-.26-24.45-.52-36.91-.79,2.25-6.27,4.32-12.17,6.53-18.01.21-.55,1.41-1.18,2.01-1.06,10.79,2.13,21.56,4.37,32.33,6.6.14.03.25.21.48.4Z"/>
      <path class="cls-2" d="m310.93,269.04h-31.75c0-2.78-.16-5.41.05-8.02.18-2.26,1.66-3.65,3.98-3.66,8.31-.04,16.61-.01,24.92.04,2.02.01,2.72,1.43,2.78,3.16.08,2.73.02,5.47.02,8.49Z"/>
      <path class="cls-2" d="m188.02,276.86c0,3.5.01,6.73,0,9.95,0,1.4-.67,2.1-2.16,2.1-9.57-.03-19.13.06-28.7-.05-3.32-.04-4.63-1.98-4.63-6.05,0-3.93,1.33-5.88,4.48-5.91,10.22-.09,20.45-.04,31.01-.04Z"/>
    </g>
  </g>
</svg>