<?xml version="1.0" encoding="UTF-8"?>
<svg id="Layer_2" data-name="Layer 2" xmlns="http://www.w3.org/2000/svg" viewBox="0 0 600.55 600.72">
  <defs>
    <style>
      .cls-1 {
        fill: #fff;
        stroke-width: 0px;
      }
    </style>
  </defs>
  <g id="Layer_1-2" data-name="Layer 1">
    <g>
      <path class="cls-1" d="m300.28,0c166.45,0,301.06,134.88,300.26,302.4-.8,167.17-137.64,300.12-303.74,298.31C132.96,598.92-2.02,464.67.02,296.43,1.99,134.7,133.08.66,300.28,0Zm210.25,471.03c84.85-101.8,86.37-267.78-28.53-371.37C364.72-6.07,186.65,8.68,88.47,131.55c-91.98,115.11-65.78,262.69,1.46,338.63.16-.26.39-.51.47-.79.37-1.45.67-2.91,1.05-4.36,19.55-74.67,65.32-125.74,137.71-152.71,2.24-.83,5.6-.44,7.79.65,42.46,21.25,84.78,21.12,127.16-.24,1.94-.98,4.89-1.35,6.89-.64,55.11,19.66,95.76,55.78,122.07,108,8.01,15.9,13.54,32.73,17.47,50.93Z"/>
      <path class="cls-1" d="m300.27,300.67c-59.28,0-107.4-47.99-107.59-107.31-.19-59.1,48.4-107.54,107.86-107.53,59.76.01,107.21,48.3,107.17,109.06-.04,57.91-48.66,105.78-107.44,105.79Z"/>
    </g>
  </g>
</svg>